<svg width="8" height="12" viewBox="0 0 8 12" fill="none" xmlns="http://www.w3.org/2000/svg">
<path d="M4.14134 1.5142C3.4884 1.5142 2.99953 1.66501 2.67472 1.96662C2.35322 2.26491 2.18419 2.6759 2.16761 3.19957H1.1733C1.18324 2.72893 1.29261 2.30469 1.50142 1.92685C1.71023 1.54569 2.03172 1.24242 2.46591 1.01705C2.90009 0.791666 3.45857 0.678977 4.14134 0.678977C4.7313 0.678977 5.23343 0.766808 5.64773 0.942471C6.06534 1.11813 6.38187 1.375 6.5973 1.71307C6.81605 2.04782 6.92543 2.45715 6.92543 2.94105C6.92543 3.15649 6.8956 3.36695 6.83594 3.57244C6.77959 3.77794 6.69342 3.97183 6.57741 4.15412C6.46473 4.33641 6.32884 4.50213 6.16974 4.65128L5.27983 4.42756C5.45881 4.22538 5.62287 3.99337 5.77202 3.73153C5.92448 3.4697 6.00071 3.19626 6.00071 2.91122C6.00071 2.49029 5.84328 2.15223 5.52841 1.89702C5.21354 1.64181 4.75118 1.5142 4.14134 1.5142ZM7.66122 5.14844H0.581676V4.31321H7.66122V5.14844ZM7.66122 7.3956H0.581676V6.56037H7.66122V7.3956ZM4.10156 11.1442C3.18679 11.1442 2.46094 10.9387 1.92401 10.5277C1.38707 10.1167 1.11861 9.53669 1.11861 8.78764C1.11861 8.58546 1.14678 8.3866 1.20312 8.19105C1.25947 7.99219 1.34067 7.80658 1.44673 7.63423C1.55611 7.45857 1.692 7.30445 1.8544 7.17188L2.83381 7.27628C2.58191 7.49834 2.39631 7.73532 2.27699 7.98722C2.16098 8.2358 2.10298 8.5026 2.10298 8.78764C2.10298 9.24834 2.27865 9.61293 2.62997 9.88139C2.9813 10.1499 3.47183 10.2841 4.10156 10.2841C4.71141 10.2841 5.20194 10.1499 5.57315 9.88139C5.94768 9.61293 6.14323 9.19863 6.1598 8.63849H7.15412C7.14086 9.19863 7.00663 9.6643 6.75142 10.0355C6.49953 10.4067 6.14654 10.6851 5.69247 10.8707C5.2384 11.053 4.7081 11.1442 4.10156 11.1442Z" fill="#C7C7C7"/>
</svg>
