<svg width="23" height="23" viewBox="0 0 23 23" fill="none" xmlns="http://www.w3.org/2000/svg">
<path d="M11.2147 0.878115C11.3045 0.601721 11.6955 0.601722 11.7853 0.878115L14.2391 8.42999C14.2792 8.5536 14.3944 8.63729 14.5244 8.63729H22.4649C22.7555 8.63729 22.8764 9.00917 22.6412 9.17999L16.2172 13.8473C16.1121 13.9237 16.0681 14.0591 16.1082 14.1827L18.562 21.7346C18.6518 22.011 18.3355 22.2408 18.1003 22.07L11.6763 17.4027C11.5712 17.3263 11.4288 17.3263 11.3237 17.4027L4.89965 22.07C4.66454 22.2408 4.3482 22.011 4.438 21.7346L6.89175 14.1827C6.93192 14.0591 6.88792 13.9237 6.78277 13.8473L0.358762 9.17999C0.123648 9.00917 0.244481 8.63729 0.535098 8.63729H8.47561C8.60558 8.63729 8.72077 8.5536 8.76093 8.42999L11.2147 0.878115Z" fill="#FD713E"/>
</svg>
