<svg width="1512" height="982" viewBox="0 0 1512 982" fill="none" xmlns="http://www.w3.org/2000/svg">
<rect width="1512" height="982" fill="#2B2B33"/>
<circle cx="21.5" cy="3.5" r="2.5" fill="white"/>
<circle cx="40.5" cy="3.5" r="2.5" fill="white"/>
<circle cx="59.5" cy="3.5" r="2.5" fill="white"/>
<circle cx="78.5" cy="3.5" r="2.5" fill="white"/>
<circle cx="97.5" cy="3.5" r="2.5" fill="white"/>
<circle cx="116.5" cy="3.5" r="2.5" fill="white"/>
<circle cx="135.5" cy="3.5" r="2.5" fill="white"/>
<circle cx="21.5" cy="22.5" r="2.5" fill="white"/>
<circle cx="40.5" cy="22.5" r="2.5" fill="white"/>
<circle cx="59.5" cy="22.5" r="2.5" fill="white"/>
<circle cx="78.5" cy="22.5" r="2.5" fill="white"/>
<circle cx="97.5" cy="22.5" r="2.5" fill="white"/>
<circle cx="116.5" cy="22.5" r="2.5" fill="white"/>
<circle cx="135.5" cy="22.5" r="2.5" fill="white"/>
<circle cx="21.5" cy="41.5" r="2.5" fill="white"/>
<circle cx="40.5" cy="41.5" r="2.5" fill="white"/>
<circle cx="59.5" cy="41.5" r="2.5" fill="white"/>
<circle cx="78.5" cy="41.5" r="2.5" fill="white"/>
<circle cx="97.5" cy="41.5" r="2.5" fill="white"/>
<circle cx="116.5" cy="41.5" r="2.5" fill="white"/>
<circle cx="135.5" cy="41.5" r="2.5" fill="white"/>
<circle cx="21.5" cy="60.5" r="2.5" fill="white"/>
<circle cx="40.5" cy="60.5" r="2.5" fill="white"/>
<circle cx="59.5" cy="60.5" r="2.5" fill="white"/>
<circle cx="78.5" cy="60.5" r="2.5" fill="white"/>
<circle cx="97.5" cy="60.5" r="2.5" fill="white"/>
<circle cx="116.5" cy="60.5" r="2.5" fill="white"/>
<circle cx="135.5" cy="60.5" r="2.5" fill="white"/>
<circle cx="21.5" cy="79.5" r="2.5" fill="white"/>
<circle cx="40.5" cy="79.5" r="2.5" fill="white"/>
<circle cx="59.5" cy="79.5" r="2.5" fill="white"/>
<circle cx="78.5" cy="79.5" r="2.5" fill="white"/>
<circle cx="97.5" cy="79.5" r="2.5" fill="white"/>
<circle cx="116.5" cy="79.5" r="2.5" fill="white"/>
<circle cx="135.5" cy="79.5" r="2.5" fill="white"/>
<circle cx="21.5" cy="98.5" r="2.5" fill="white"/>
<circle cx="40.5" cy="98.5" r="2.5" fill="white"/>
<circle cx="59.5" cy="98.5" r="2.5" fill="white"/>
<circle cx="78.5" cy="98.5" r="2.5" fill="white"/>
<circle cx="97.5" cy="98.5" r="2.5" fill="white"/>
<circle cx="116.5" cy="98.5" r="2.5" fill="white"/>
<circle cx="135.5" cy="98.5" r="2.5" fill="white"/>
<circle cx="21.5" cy="117.5" r="2.5" fill="white"/>
<circle cx="40.5" cy="117.5" r="2.5" fill="white"/>
<circle cx="59.5" cy="117.5" r="2.5" fill="white"/>
<circle cx="78.5" cy="117.5" r="2.5" fill="white"/>
<circle cx="97.5" cy="117.5" r="2.5" fill="white"/>
<circle cx="116.5" cy="117.5" r="2.5" fill="white"/>
<circle cx="135.5" cy="117.5" r="2.5" fill="white"/>
<circle cx="21.5" cy="136.5" r="2.5" fill="white"/>
<circle cx="40.5" cy="136.5" r="2.5" fill="white"/>
<circle cx="59.5" cy="136.5" r="2.5" fill="white"/>
<circle cx="78.5" cy="136.5" r="2.5" fill="white"/>
<circle cx="97.5" cy="136.5" r="2.5" fill="white"/>
<circle cx="116.5" cy="136.5" r="2.5" fill="white"/>
<circle cx="135.5" cy="136.5" r="2.5" fill="white"/>
<circle cx="21.5" cy="155.5" r="2.5" fill="white"/>
<circle cx="40.5" cy="155.5" r="2.5" fill="white"/>
<circle cx="59.5" cy="155.5" r="2.5" fill="white"/>
<circle cx="78.5" cy="155.5" r="2.5" fill="white"/>
<circle cx="97.5" cy="155.5" r="2.5" fill="white"/>
<circle cx="116.5" cy="155.5" r="2.5" fill="white"/>
<circle cx="135.5" cy="155.5" r="2.5" fill="white"/>
<circle cx="21.5" cy="174.5" r="2.5" fill="white"/>
<circle cx="40.5" cy="174.5" r="2.5" fill="white"/>
<circle cx="59.5" cy="174.5" r="2.5" fill="white"/>
<circle cx="78.5" cy="174.5" r="2.5" fill="white"/>
<circle cx="97.5" cy="174.5" r="2.5" fill="white"/>
<circle cx="116.5" cy="174.5" r="2.5" fill="white"/>
<circle cx="135.5" cy="174.5" r="2.5" fill="white"/>
<circle cx="21.5" cy="193.5" r="2.5" fill="white"/>
<circle cx="40.5" cy="193.5" r="2.5" fill="white"/>
<circle cx="59.5" cy="193.5" r="2.5" fill="white"/>
<circle cx="78.5" cy="193.5" r="2.5" fill="white"/>
<circle cx="97.5" cy="193.5" r="2.5" fill="white"/>
<circle cx="116.5" cy="193.5" r="2.5" fill="white"/>
<circle cx="135.5" cy="193.5" r="2.5" fill="white"/>
<circle cx="21.5" cy="212.5" r="2.5" fill="white"/>
<circle cx="40.5" cy="212.5" r="2.5" fill="white"/>
<circle cx="59.5" cy="212.5" r="2.5" fill="white"/>
<circle cx="78.5" cy="212.5" r="2.5" fill="white"/>
<circle cx="97.5" cy="212.5" r="2.5" fill="white"/>
<circle cx="116.5" cy="212.5" r="2.5" fill="white"/>
<circle cx="135.5" cy="212.5" r="2.5" fill="white"/>
<circle cx="21.5" cy="231.5" r="2.5" fill="white"/>
<circle cx="40.5" cy="231.5" r="2.5" fill="white"/>
<circle cx="59.5" cy="231.5" r="2.5" fill="white"/>
<circle cx="78.5" cy="231.5" r="2.5" fill="white"/>
<circle cx="97.5" cy="231.5" r="2.5" fill="white"/>
<circle cx="116.5" cy="231.5" r="2.5" fill="white"/>
<circle cx="135.5" cy="231.5" r="2.5" fill="white"/>
<circle cx="21.5" cy="250.5" r="2.5" fill="white"/>
<circle cx="40.5" cy="250.5" r="2.5" fill="white"/>
<circle cx="59.5" cy="250.5" r="2.5" fill="white"/>
<circle cx="78.5" cy="250.5" r="2.5" fill="white"/>
<circle cx="97.5" cy="250.5" r="2.5" fill="white"/>
<circle cx="116.5" cy="250.5" r="2.5" fill="white"/>
<circle cx="135.5" cy="250.5" r="2.5" fill="white"/>
<circle cx="99.5" cy="880.5" r="2.5" transform="rotate(-90 99.5 880.5)" fill="white"/>
<circle cx="99.5" cy="861.5" r="2.5" transform="rotate(-90 99.5 861.5)" fill="white"/>
<circle cx="99.5" cy="842.5" r="2.5" transform="rotate(-90 99.5 842.5)" fill="white"/>
<circle cx="99.5" cy="823.5" r="2.5" transform="rotate(-90 99.5 823.5)" fill="white"/>
<circle cx="99.5" cy="804.5" r="2.5" transform="rotate(-90 99.5 804.5)" fill="white"/>
<circle cx="99.5" cy="785.5" r="2.5" transform="rotate(-90 99.5 785.5)" fill="white"/>
<circle cx="99.5" cy="766.5" r="2.5" transform="rotate(-90 99.5 766.5)" fill="white"/>
<circle cx="118.5" cy="880.5" r="2.5" transform="rotate(-90 118.5 880.5)" fill="white"/>
<circle cx="118.5" cy="861.5" r="2.5" transform="rotate(-90 118.5 861.5)" fill="white"/>
<circle cx="118.5" cy="842.5" r="2.5" transform="rotate(-90 118.5 842.5)" fill="white"/>
<circle cx="118.5" cy="823.5" r="2.5" transform="rotate(-90 118.5 823.5)" fill="white"/>
<circle cx="118.5" cy="804.5" r="2.5" transform="rotate(-90 118.5 804.5)" fill="white"/>
<circle cx="118.5" cy="785.5" r="2.5" transform="rotate(-90 118.5 785.5)" fill="white"/>
<circle cx="118.5" cy="766.5" r="2.5" transform="rotate(-90 118.5 766.5)" fill="white"/>
<circle cx="137.5" cy="880.5" r="2.5" transform="rotate(-90 137.5 880.5)" fill="white"/>
<circle cx="137.5" cy="861.5" r="2.5" transform="rotate(-90 137.5 861.5)" fill="white"/>
<circle cx="137.5" cy="842.5" r="2.5" transform="rotate(-90 137.5 842.5)" fill="white"/>
<circle cx="137.5" cy="823.5" r="2.5" transform="rotate(-90 137.5 823.5)" fill="white"/>
<circle cx="137.5" cy="804.5" r="2.5" transform="rotate(-90 137.5 804.5)" fill="white"/>
<circle cx="137.5" cy="785.5" r="2.5" transform="rotate(-90 137.5 785.5)" fill="white"/>
<circle cx="137.5" cy="766.5" r="2.5" transform="rotate(-90 137.5 766.5)" fill="white"/>
<circle cx="156.5" cy="880.5" r="2.5" transform="rotate(-90 156.5 880.5)" fill="white"/>
<circle cx="156.5" cy="861.5" r="2.5" transform="rotate(-90 156.5 861.5)" fill="white"/>
<circle cx="156.5" cy="842.5" r="2.5" transform="rotate(-90 156.5 842.5)" fill="white"/>
<circle cx="156.5" cy="823.5" r="2.5" transform="rotate(-90 156.5 823.5)" fill="white"/>
<circle cx="156.5" cy="804.5" r="2.5" transform="rotate(-90 156.5 804.5)" fill="white"/>
<circle cx="156.5" cy="785.5" r="2.5" transform="rotate(-90 156.5 785.5)" fill="white"/>
<circle cx="156.5" cy="766.5" r="2.5" transform="rotate(-90 156.5 766.5)" fill="white"/>
<circle cx="175.5" cy="880.5" r="2.5" transform="rotate(-90 175.5 880.5)" fill="white"/>
<circle cx="175.5" cy="861.5" r="2.5" transform="rotate(-90 175.5 861.5)" fill="white"/>
<circle cx="175.5" cy="842.5" r="2.5" transform="rotate(-90 175.5 842.5)" fill="white"/>
<circle cx="175.5" cy="823.5" r="2.5" transform="rotate(-90 175.5 823.5)" fill="white"/>
<circle cx="175.5" cy="804.5" r="2.5" transform="rotate(-90 175.5 804.5)" fill="white"/>
<circle cx="175.5" cy="785.5" r="2.5" transform="rotate(-90 175.5 785.5)" fill="white"/>
<circle cx="175.5" cy="766.5" r="2.5" transform="rotate(-90 175.5 766.5)" fill="white"/>
<circle cx="194.5" cy="880.5" r="2.5" transform="rotate(-90 194.5 880.5)" fill="white"/>
<circle cx="194.5" cy="861.5" r="2.5" transform="rotate(-90 194.5 861.5)" fill="white"/>
<circle cx="194.5" cy="842.5" r="2.5" transform="rotate(-90 194.5 842.5)" fill="white"/>
<circle cx="194.5" cy="823.5" r="2.5" transform="rotate(-90 194.5 823.5)" fill="white"/>
<circle cx="194.5" cy="804.5" r="2.5" transform="rotate(-90 194.5 804.5)" fill="white"/>
<circle cx="194.5" cy="785.5" r="2.5" transform="rotate(-90 194.5 785.5)" fill="white"/>
<circle cx="194.5" cy="766.5" r="2.5" transform="rotate(-90 194.5 766.5)" fill="white"/>
<circle cx="213.5" cy="880.5" r="2.5" transform="rotate(-90 213.5 880.5)" fill="white"/>
<circle cx="213.5" cy="861.5" r="2.5" transform="rotate(-90 213.5 861.5)" fill="white"/>
<circle cx="213.5" cy="842.5" r="2.5" transform="rotate(-90 213.5 842.5)" fill="white"/>
<circle cx="213.5" cy="823.5" r="2.5" transform="rotate(-90 213.5 823.5)" fill="white"/>
<circle cx="213.5" cy="804.5" r="2.5" transform="rotate(-90 213.5 804.5)" fill="white"/>
<circle cx="213.5" cy="785.5" r="2.5" transform="rotate(-90 213.5 785.5)" fill="white"/>
<circle cx="213.5" cy="766.5" r="2.5" transform="rotate(-90 213.5 766.5)" fill="white"/>
<circle cx="232.5" cy="880.5" r="2.5" transform="rotate(-90 232.5 880.5)" fill="white"/>
<circle cx="232.5" cy="861.5" r="2.5" transform="rotate(-90 232.5 861.5)" fill="white"/>
<circle cx="232.5" cy="842.5" r="2.5" transform="rotate(-90 232.5 842.5)" fill="white"/>
<circle cx="232.5" cy="823.5" r="2.5" transform="rotate(-90 232.5 823.5)" fill="white"/>
<circle cx="232.5" cy="804.5" r="2.5" transform="rotate(-90 232.5 804.5)" fill="white"/>
<circle cx="232.5" cy="785.5" r="2.5" transform="rotate(-90 232.5 785.5)" fill="white"/>
<circle cx="232.5" cy="766.5" r="2.5" transform="rotate(-90 232.5 766.5)" fill="white"/>
<circle cx="251.5" cy="880.5" r="2.5" transform="rotate(-90 251.5 880.5)" fill="white"/>
<circle cx="251.5" cy="861.5" r="2.5" transform="rotate(-90 251.5 861.5)" fill="white"/>
<circle cx="251.5" cy="842.5" r="2.5" transform="rotate(-90 251.5 842.5)" fill="white"/>
<circle cx="251.5" cy="823.5" r="2.5" transform="rotate(-90 251.5 823.5)" fill="white"/>
<circle cx="251.5" cy="804.5" r="2.5" transform="rotate(-90 251.5 804.5)" fill="white"/>
<circle cx="251.5" cy="785.5" r="2.5" transform="rotate(-90 251.5 785.5)" fill="white"/>
<circle cx="251.5" cy="766.5" r="2.5" transform="rotate(-90 251.5 766.5)" fill="white"/>
<circle cx="270.5" cy="880.5" r="2.5" transform="rotate(-90 270.5 880.5)" fill="white"/>
<circle cx="270.5" cy="861.5" r="2.5" transform="rotate(-90 270.5 861.5)" fill="white"/>
<circle cx="270.5" cy="842.5" r="2.5" transform="rotate(-90 270.5 842.5)" fill="white"/>
<circle cx="270.5" cy="823.5" r="2.5" transform="rotate(-90 270.5 823.5)" fill="white"/>
<circle cx="270.5" cy="804.5" r="2.5" transform="rotate(-90 270.5 804.5)" fill="white"/>
<circle cx="270.5" cy="785.5" r="2.5" transform="rotate(-90 270.5 785.5)" fill="white"/>
<circle cx="270.5" cy="766.5" r="2.5" transform="rotate(-90 270.5 766.5)" fill="white"/>
<circle cx="289.5" cy="880.5" r="2.5" transform="rotate(-90 289.5 880.5)" fill="white"/>
<circle cx="289.5" cy="861.5" r="2.5" transform="rotate(-90 289.5 861.5)" fill="white"/>
<circle cx="289.5" cy="842.5" r="2.5" transform="rotate(-90 289.5 842.5)" fill="white"/>
<circle cx="289.5" cy="823.5" r="2.5" transform="rotate(-90 289.5 823.5)" fill="white"/>
<circle cx="289.5" cy="804.5" r="2.5" transform="rotate(-90 289.5 804.5)" fill="white"/>
<circle cx="289.5" cy="785.5" r="2.5" transform="rotate(-90 289.5 785.5)" fill="white"/>
<circle cx="289.5" cy="766.5" r="2.5" transform="rotate(-90 289.5 766.5)" fill="white"/>
<circle cx="308.5" cy="880.5" r="2.5" transform="rotate(-90 308.5 880.5)" fill="white"/>
<circle cx="308.5" cy="861.5" r="2.5" transform="rotate(-90 308.5 861.5)" fill="white"/>
<circle cx="308.5" cy="842.5" r="2.5" transform="rotate(-90 308.5 842.5)" fill="white"/>
<circle cx="308.5" cy="823.5" r="2.5" transform="rotate(-90 308.5 823.5)" fill="white"/>
<circle cx="308.5" cy="804.5" r="2.5" transform="rotate(-90 308.5 804.5)" fill="white"/>
<circle cx="308.5" cy="785.5" r="2.5" transform="rotate(-90 308.5 785.5)" fill="white"/>
<circle cx="308.5" cy="766.5" r="2.5" transform="rotate(-90 308.5 766.5)" fill="white"/>
<circle cx="327.5" cy="880.5" r="2.5" transform="rotate(-90 327.5 880.5)" fill="white"/>
<circle cx="327.5" cy="861.5" r="2.5" transform="rotate(-90 327.5 861.5)" fill="white"/>
<circle cx="327.5" cy="842.5" r="2.5" transform="rotate(-90 327.5 842.5)" fill="white"/>
<circle cx="327.5" cy="823.5" r="2.5" transform="rotate(-90 327.5 823.5)" fill="white"/>
<circle cx="327.5" cy="804.5" r="2.5" transform="rotate(-90 327.5 804.5)" fill="white"/>
<circle cx="327.5" cy="785.5" r="2.5" transform="rotate(-90 327.5 785.5)" fill="white"/>
<circle cx="327.5" cy="766.5" r="2.5" transform="rotate(-90 327.5 766.5)" fill="white"/>
<circle cx="346.5" cy="880.5" r="2.5" transform="rotate(-90 346.5 880.5)" fill="white"/>
<circle cx="346.5" cy="861.5" r="2.5" transform="rotate(-90 346.5 861.5)" fill="white"/>
<circle cx="346.5" cy="842.5" r="2.5" transform="rotate(-90 346.5 842.5)" fill="white"/>
<circle cx="346.5" cy="823.5" r="2.5" transform="rotate(-90 346.5 823.5)" fill="white"/>
<circle cx="346.5" cy="804.5" r="2.5" transform="rotate(-90 346.5 804.5)" fill="white"/>
<circle cx="346.5" cy="785.5" r="2.5" transform="rotate(-90 346.5 785.5)" fill="white"/>
<circle cx="346.5" cy="766.5" r="2.5" transform="rotate(-90 346.5 766.5)" fill="white"/>
<circle cx="701.5" cy="314.5" r="2.5" fill="white"/>
<circle cx="720.5" cy="314.5" r="2.5" fill="white"/>
<circle cx="739.5" cy="314.5" r="2.5" fill="white"/>
<circle cx="758.5" cy="314.5" r="2.5" fill="white"/>
<circle cx="777.5" cy="314.5" r="2.5" fill="white"/>
<circle cx="796.5" cy="314.5" r="2.5" fill="white"/>
<circle cx="815.5" cy="314.5" r="2.5" fill="white"/>
<circle cx="701.5" cy="333.5" r="2.5" fill="white"/>
<circle cx="720.5" cy="333.5" r="2.5" fill="white"/>
<circle cx="739.5" cy="333.5" r="2.5" fill="white"/>
<circle cx="758.5" cy="333.5" r="2.5" fill="white"/>
<circle cx="777.5" cy="333.5" r="2.5" fill="white"/>
<circle cx="796.5" cy="333.5" r="2.5" fill="white"/>
<circle cx="815.5" cy="333.5" r="2.5" fill="white"/>
<circle cx="701.5" cy="352.5" r="2.5" fill="white"/>
<circle cx="720.5" cy="352.5" r="2.5" fill="white"/>
<circle cx="739.5" cy="352.5" r="2.5" fill="white"/>
<circle cx="758.5" cy="352.5" r="2.5" fill="white"/>
<circle cx="777.5" cy="352.5" r="2.5" fill="white"/>
<circle cx="796.5" cy="352.5" r="2.5" fill="white"/>
<circle cx="815.5" cy="352.5" r="2.5" fill="white"/>
<circle cx="701.5" cy="371.5" r="2.5" fill="white"/>
<circle cx="720.5" cy="371.5" r="2.5" fill="white"/>
<circle cx="739.5" cy="371.5" r="2.5" fill="white"/>
<circle cx="758.5" cy="371.5" r="2.5" fill="white"/>
<circle cx="777.5" cy="371.5" r="2.5" fill="white"/>
<circle cx="796.5" cy="371.5" r="2.5" fill="white"/>
<circle cx="815.5" cy="371.5" r="2.5" fill="white"/>
<circle cx="701.5" cy="390.5" r="2.5" fill="white"/>
<circle cx="720.5" cy="390.5" r="2.5" fill="white"/>
<circle cx="739.5" cy="390.5" r="2.5" fill="white"/>
<circle cx="758.5" cy="390.5" r="2.5" fill="white"/>
<circle cx="777.5" cy="390.5" r="2.5" fill="white"/>
<circle cx="796.5" cy="390.5" r="2.5" fill="white"/>
<circle cx="815.5" cy="390.5" r="2.5" fill="white"/>
<circle cx="701.5" cy="409.5" r="2.5" fill="white"/>
<circle cx="720.5" cy="409.5" r="2.5" fill="white"/>
<circle cx="739.5" cy="409.5" r="2.5" fill="white"/>
<circle cx="758.5" cy="409.5" r="2.5" fill="white"/>
<circle cx="777.5" cy="409.5" r="2.5" fill="white"/>
<circle cx="796.5" cy="409.5" r="2.5" fill="white"/>
<circle cx="815.5" cy="409.5" r="2.5" fill="white"/>
<circle cx="701.5" cy="428.5" r="2.5" fill="white"/>
<circle cx="720.5" cy="428.5" r="2.5" fill="white"/>
<circle cx="739.5" cy="428.5" r="2.5" fill="white"/>
<circle cx="758.5" cy="428.5" r="2.5" fill="white"/>
<circle cx="777.5" cy="428.5" r="2.5" fill="white"/>
<circle cx="796.5" cy="428.5" r="2.5" fill="white"/>
<circle cx="815.5" cy="428.5" r="2.5" fill="white"/>
<circle cx="701.5" cy="447.5" r="2.5" fill="white"/>
<circle cx="720.5" cy="447.5" r="2.5" fill="white"/>
<circle cx="739.5" cy="447.5" r="2.5" fill="white"/>
<circle cx="758.5" cy="447.5" r="2.5" fill="white"/>
<circle cx="777.5" cy="447.5" r="2.5" fill="white"/>
<circle cx="796.5" cy="447.5" r="2.5" fill="white"/>
<circle cx="815.5" cy="447.5" r="2.5" fill="white"/>
<circle cx="701.5" cy="466.5" r="2.5" fill="white"/>
<circle cx="720.5" cy="466.5" r="2.5" fill="white"/>
<circle cx="739.5" cy="466.5" r="2.5" fill="white"/>
<circle cx="758.5" cy="466.5" r="2.5" fill="white"/>
<circle cx="777.5" cy="466.5" r="2.5" fill="white"/>
<circle cx="796.5" cy="466.5" r="2.5" fill="white"/>
<circle cx="815.5" cy="466.5" r="2.5" fill="white"/>
<circle cx="701.5" cy="485.5" r="2.5" fill="white"/>
<circle cx="720.5" cy="485.5" r="2.5" fill="white"/>
<circle cx="739.5" cy="485.5" r="2.5" fill="white"/>
<circle cx="758.5" cy="485.5" r="2.5" fill="white"/>
<circle cx="777.5" cy="485.5" r="2.5" fill="white"/>
<circle cx="796.5" cy="485.5" r="2.5" fill="white"/>
<circle cx="815.5" cy="485.5" r="2.5" fill="white"/>
<circle cx="701.5" cy="504.5" r="2.5" fill="white"/>
<circle cx="720.5" cy="504.5" r="2.5" fill="white"/>
<circle cx="739.5" cy="504.5" r="2.5" fill="white"/>
<circle cx="758.5" cy="504.5" r="2.5" fill="white"/>
<circle cx="777.5" cy="504.5" r="2.5" fill="white"/>
<circle cx="796.5" cy="504.5" r="2.5" fill="white"/>
<circle cx="815.5" cy="504.5" r="2.5" fill="white"/>
<circle cx="701.5" cy="523.5" r="2.5" fill="white"/>
<circle cx="720.5" cy="523.5" r="2.5" fill="white"/>
<circle cx="739.5" cy="523.5" r="2.5" fill="white"/>
<circle cx="758.5" cy="523.5" r="2.5" fill="white"/>
<circle cx="777.5" cy="523.5" r="2.5" fill="white"/>
<circle cx="796.5" cy="523.5" r="2.5" fill="white"/>
<circle cx="815.5" cy="523.5" r="2.5" fill="white"/>
<circle cx="701.5" cy="542.5" r="2.5" fill="white"/>
<circle cx="720.5" cy="542.5" r="2.5" fill="white"/>
<circle cx="739.5" cy="542.5" r="2.5" fill="white"/>
<circle cx="758.5" cy="542.5" r="2.5" fill="white"/>
<circle cx="777.5" cy="542.5" r="2.5" fill="white"/>
<circle cx="796.5" cy="542.5" r="2.5" fill="white"/>
<circle cx="815.5" cy="542.5" r="2.5" fill="white"/>
<circle cx="701.5" cy="561.5" r="2.5" fill="white"/>
<circle cx="720.5" cy="561.5" r="2.5" fill="white"/>
<circle cx="739.5" cy="561.5" r="2.5" fill="white"/>
<circle cx="758.5" cy="561.5" r="2.5" fill="white"/>
<circle cx="777.5" cy="561.5" r="2.5" fill="white"/>
<circle cx="796.5" cy="561.5" r="2.5" fill="white"/>
<circle cx="815.5" cy="561.5" r="2.5" fill="white"/>
</svg>
