<svg width="61" height="22" viewBox="0 0 61 22" fill="none" xmlns="http://www.w3.org/2000/svg">
<path d="M21.6765 9.82354C21.6765 5.35295 25.5882 2.27942 30.3382 2.27942C35.6471 2.27942 39 5.35295 39 9.82354" stroke="white" stroke-width="3"/>
<path d="M21.6765 12.6176C21.6765 17.0882 25.5882 20.1617 30.3382 20.1617C35.6471 20.1617 39 17.0882 39 12.6176" stroke="white" stroke-width="3"/>
<path d="M34.5 13C35.3284 13 36 12.3284 36 11.5C36 10.6716 35.3284 10 34.5 10L26.5 10C25.6716 10 25 10.6716 25 11.5C25 12.3284 25.6716 13 26.5 13L34.5 13Z" fill="white"/>
<path d="M50 8H53V19.5C53 20.3284 52.3284 21 51.5 21C50.6716 21 50 20.3284 50 19.5V8Z" fill="white"/>
<rect x="42" y="5" width="3" height="19" rx="1.5" transform="rotate(-90 42 5)" fill="white"/>
<path d="M8 8H11V19.5C11 20.3284 10.3284 21 9.5 21C8.67157 21 8 20.3284 8 19.5V8Z" fill="white"/>
<rect y="5" width="3" height="19" rx="1.5" transform="rotate(-90 0 5)" fill="white"/>
</svg>
